<?xml version="1.0" encoding="UTF-8" standalone="no"?>
<!-- Generator: Adobe Illustrator 19.2.1, SVG Export Plug-In . SVG Version: 6.00 Build 0)  -->

<svg
   xmlns:dc="http://purl.org/dc/elements/1.1/"
   xmlns:cc="http://creativecommons.org/ns#"
   xmlns:rdf="http://www.w3.org/1999/02/22-rdf-syntax-ns#"
   xmlns:svg="http://www.w3.org/2000/svg"
   xmlns="http://www.w3.org/2000/svg"
   xmlns:sodipodi="http://sodipodi.sourceforge.net/DTD/sodipodi-0.dtd"
   xmlns:inkscape="http://www.inkscape.org/namespaces/inkscape"
   version="1.1"
   id="Layer_1"
   x="0px"
   y="0px"
   viewBox="0 0 216.53932 181.36034"
   xml:space="preserve"
   sodipodi:docname="swagger-ui.svg"
   width="216.53932"
   height="181.36035"
   inkscape:version="0.92.1 r15371"><metadata
     id="metadata15"><rdf:RDF><cc:Work
         rdf:about=""><dc:format>image/svg+xml</dc:format><dc:type
           rdf:resource="http://purl.org/dc/dcmitype/StillImage" /><dc:title></dc:title></cc:Work></rdf:RDF></metadata><defs
     id="defs13" /><sodipodi:namedview
     pagecolor="#ffffff"
     bordercolor="#666666"
     borderopacity="1"
     objecttolerance="10"
     gridtolerance="10"
     guidetolerance="10"
     inkscape:pageopacity="0"
     inkscape:pageshadow="2"
     inkscape:window-width="1855"
     inkscape:window-height="1056"
     id="namedview11"
     showgrid="false"
     fit-margin-top="0"
     fit-margin-left="0"
     fit-margin-right="0"
     fit-margin-bottom="0"
     inkscape:zoom="2.183542"
     inkscape:cx="277.92322"
     inkscape:cy="133.33981"
     inkscape:window-x="1985"
     inkscape:window-y="24"
     inkscape:window-maximized="1"
     inkscape:current-layer="Layer_1" /><style
     type="text/css"
     id="style2">
	.st0{fill:#FFFFFF;}
	.st1{fill:#AF6EE8;}
</style><path
     style="fill:#ffffff"
     d="m 161.92006,0.00482817 c -6.9002,0.0793 -6.90039,1.25078103 -6.90039,10.61328083 0,8.6 -7.8e-4,8.598438 8.69922,8.898438 6.3,0.2 8.69961,1.700781 9.59961,7.800781 0.9,6.5 0.50039,13.300391 0.90039,19.900391 1,16.2 0.90039,32.79882 17.40039,43.29882 -11.6,7.1 -15.5,18.101181 -16.5,30.201181 -0.8,9.1 -0.79961,18.30039 -1.09961,27.40039 -0.3,10.5 -2.60039,13.29961 -12.90039,13.09961 -5.2,-0.1 -6.40078,1.5996 -6.30078,6.59961 0.3,14.4 0.10156,14.40039 14.60156,12.90039 14,-1.4 21.19883,-7.6004 24.29883,-21.40039 1.1,-5 1.50078,-10.10079 1.80078,-15.30079 0.5,-8.9 0.39922,-17.89843 1.19922,-26.89843 0.9,-10.4 5.7,-14.70039 16,-15.40039 2.8,-0.2 3.90078,-1.20039 3.80078,-3.900391 -0.1,-4.5 -0.2,-9 0,-13.5 0.2,-3.80001 -1.09961,-5.30079 -5.09961,-5.30079 -7.5,0 -11.5,-2.89961 -13.5,-10.09961 -1.3,-4.6 -2.00078,-9.39921 -2.30078,-14.19921 -0.6,-9.3 -0.39961,-18.600391 -1.09961,-27.900391 -1.5,-17.9999998 -11.10117,-26.70078083 -29.20117,-26.80078083 -1.2875,-0.0125 -2.4127,-0.02305 -3.39844,-0.011719 z m -108.205087,0.03516 c -1.1293,0.0063 -2.42148,0.04063 -3.89648,0.07813 -16.8,0.4 -26.99844,10.19843783 -27.89844,26.89843783 -0.5,10.1 -0.7,20.300393 -1,30.400393 -0.4,14.49999 -4.10039,19.00039 -17.9003903,21.90039 -1.2,0.19999 -2.70078002,2.29921 -2.80078002,3.69921 -0.4,4.5 7.8e-4,9 -0.19922,13.5 -0.2,3.900001 1.09961002,5.300791 5.09961002,5.300791 7.1000003,0 11.6000003,3.1996 13.5000003,9.5996 1.2,4.2 1.99922,8.70118 2.19922,13.20118 0.6,9.5 0.60156,18.89843 1.10156,28.39843 1.2,22 15.79961,30.60078 39.599613,26.80079 v -9.4004 c 0,-8.8 -3.9e-4,-8.79921 -8.900393,-9.19921 -6.2,-0.3 -8.39961,-1.79961 -9.09961,-8.09961 -0.8,-7.9 -0.49961,-15.90039 -1.09961,-23.90039 -0.8,-14.8 -2.50117,-29.400791 -17.20117,-38.800791 11.3,-7.4 15.70039,-17.8 16.40039,-29.99999 0.6,-9.1 0.39961,-18.30039 1.09961,-27.400393 0.8,-10.2 1.80117,-13.998828 13.201173,-13.298828 5.3,0.3 6.39922,-2.000391 5.69922,-6.400391 -0.1,-0.7 0,-1.3 0,-2 0,-10.0624998 7.8e-4,-11.32109383 -7.904303,-11.27734383 z M 108.42006,78.016539 c -7.3,0 -12.500394,5.30157 -12.400394,12.60157 0.1,7.1 5.098834,12.099611 12.298834,12.099611 7.3,0 12.30078,-4.800001 12.30078,-12.000001 0.1,-7.5 -4.89922,-12.60118 -12.19922,-12.70118 z m -43.201174,0.10157 c -7.1,0 -12.799223,5.6 -12.699223,12.5 0.1,6.8 5.600003,12.099611 12.500003,12.099611 7.3,0 12.69922,-5.400401 12.69922,-12.400391 -0.2,-6.7 -5.7,-12.19922 -12.5,-12.19922 z m 86.400394,0 c -6.9,0 -12.69961,5.8 -12.59961,12.5 0.1,6.6 5.8,12.099611 12.5,12.099611 6.9,0 12.90039,-5.601181 12.90039,-12.201181 0,-6.6 -5.90078,-12.39843 -12.80078,-12.39843 z"
     id="rect3709"
     inkscape:connector-curvature="0"
     sodipodi:nodetypes="cscccccccccccccccsccccccccccccsccccsccccccccsccccsccscscsscsss" /><g
     transform="translate(14.139782,-88.029232)"
     id="g8-3-7" /></svg>