<?xml version="1.0" encoding="UTF-8" standalone="no"?>
<!-- Created with Inkscape (http://www.inkscape.org/) -->

<svg
   xmlns:dc="http://purl.org/dc/elements/1.1/"
   xmlns:cc="http://creativecommons.org/ns#"
   xmlns:rdf="http://www.w3.org/1999/02/22-rdf-syntax-ns#"
   xmlns:svg="http://www.w3.org/2000/svg"
   xmlns="http://www.w3.org/2000/svg"
   xmlns:sodipodi="http://sodipodi.sourceforge.net/DTD/sodipodi-0.dtd"
   xmlns:inkscape="http://www.inkscape.org/namespaces/inkscape"
   width="296.79376"
   height="296.32574"
   id="svg2"
   version="1.1"
   inkscape:version="0.92.1 r15371"
   sodipodi:docname="python.svg">
  <defs
     id="defs4" />
  <sodipodi:namedview
     id="base"
     pagecolor="#ffffff"
     bordercolor="#666666"
     borderopacity="1.0"
     inkscape:pageopacity="0.0"
     inkscape:pageshadow="2"
     inkscape:zoom="0.98994949"
     inkscape:cx="167.77913"
     inkscape:cy="246.07567"
     inkscape:document-units="px"
     inkscape:current-layer="layer1"
     showgrid="false"
     inkscape:window-width="1855"
     inkscape:window-height="1056"
     inkscape:window-x="1985"
     inkscape:window-y="24"
     inkscape:window-maximized="1"
     fit-margin-top="0"
     fit-margin-left="0"
     fit-margin-right="0"
     fit-margin-bottom="0" />
  <metadata
     id="metadata7">
    <rdf:RDF>
      <cc:Work
         rdf:about="">
        <dc:format>image/svg+xml</dc:format>
        <dc:type
           rdf:resource="http://purl.org/dc/dcmitype/StillImage" />
        <dc:title></dc:title>
      </cc:Work>
    </rdf:RDF>
  </metadata>
  <g
     inkscape:label="Layer 1"
     inkscape:groupmode="layer"
     id="layer1"
     transform="translate(-416.95568,-606.9177)">
    <g
       id="g3004">
      <path
         style="fill:#ffffff;stroke-width:1.06666672"
         d="m 558.95594,903.11358 c -36.09545,-1.31168 -58.43676,-12.01534 -64.12095,-30.72019 l -0.6607,-2.1741 -0.0927,-36.66995 c -0.10603,-41.96912 -0.0688,-42.81933 2.16527,-49.5022 4.07659,-12.19424 13.71676,-20.05681 28.79295,-23.48369 l 3.33363,-0.75775 41.45298,-0.18362 c 29.69953,-0.13156 42.01364,-0.2803 43.43039,-0.52458 8.30058,-1.43121 13.74567,-3.57417 18.85778,-7.42166 6.10698,-4.59625 11.1479,-12.46356 13.40059,-20.9142 1.69191,-6.34695 1.64653,-5.65359 1.82936,-27.94861 l 0.16998,-20.72648 h 14.92886 14.92887 l 2.89881,0.80951 c 15.53168,4.33734 26.80813,19.05288 31.60899,41.24915 1.84654,8.53729 1.86583,8.85317 1.86919,30.63211 0.003,21.19511 -0.006,21.38024 -1.48723,28.33274 -1.45547,6.8335 -3.3606,12.39383 -6.20761,18.11756 -5.74165,11.54316 -14.20789,19.35575 -24.9137,22.99014 -6.11572,2.07616 -0.99651,1.90253 -61.16488,2.07454 l -54.20773,0.15496 v 4.92797 4.92798 l 35.94523,0.14494 35.94524,0.14495 0.14494,17.68273 c 0.0797,9.7255 0.0449,18.51733 -0.0773,19.53739 -0.29574,2.46726 -1.34241,5.39535 -2.84003,7.94502 -1.54224,2.62565 -6.22421,7.32185 -9.40254,9.4311 -9.65388,6.40668 -24.37268,10.31198 -43.77203,11.61399 -6.52712,0.43806 -15.77053,0.56407 -22.75565,0.31025 z m 49.85952,-22.91338 c 6.92848,-1.12324 11.88802,-7.90392 10.74568,-14.69149 -0.94225,-5.59869 -5.26472,-9.92918 -10.83156,-10.85163 -8.49832,-1.40822 -16.22681,6.39555 -14.71452,14.85781 1.10004,6.15548 6.03575,10.48922 12.48136,10.95909 0.23914,0.0174 1.28272,-0.10581 2.31904,-0.27378 z M 454.36064,827.89603 c -8.15346,-1.4825 -16.18278,-6.42417 -21.85664,-13.45173 -10.74701,-13.31108 -16.17228,-35.50291 -15.49121,-63.36608 0.42443,-17.36325 3.02022,-30.25248 8.30085,-41.21726 6.80669,-14.13349 16.97682,-22.51509 30.70615,-25.30613 3.00723,-0.61134 3.15797,-0.61293 56.12315,-0.59178 29.20932,0.0116 53.32208,-0.061 53.58393,-0.16149 0.41553,-0.15946 0.4761,-0.80556 0.4761,-5.07966 0,-2.69332 -0.0326,-4.92829 -0.0724,-4.96658 -0.0399,-0.0383 -16.24782,-0.13614 -36.01771,-0.21742 l -35.94524,-0.14778 -0.0747,-18.68189 c -0.0817,-20.46158 -0.0981,-20.22432 1.65369,-23.98211 6.07288,-13.02703 23.96225,-20.94192 52.62867,-23.28477 2.07264,-0.16938 7.68184,-0.38468 12.46487,-0.47842 31.73703,-0.62198 55.0178,5.18135 67.25523,16.76509 1.35569,1.28328 3.12244,3.19874 3.92612,4.25659 1.82745,2.40537 4.10218,6.99769 4.97318,10.04003 l 0.66392,2.31905 v 38.55417 c 0,35.98802 -0.0349,38.73746 -0.52435,41.30803 -0.63159,3.31709 -2.14867,7.97777 -3.41305,10.48543 -4.3775,8.68192 -12.443,14.93669 -23.13471,17.94087 -6.94252,1.95072 -3.78937,1.82256 -49.74634,2.02196 -45.63918,0.19802 -42.88154,0.0917 -49.27975,1.89996 -12.42747,3.51225 -21.55717,13.1917 -25.26606,26.7875 -1.66731,6.1119 -1.63031,5.54089 -1.81289,27.9735 l -0.16987,20.87144 -13.91428,0.0477 c -10.50388,0.036 -14.43449,-0.0468 -16.03667,-0.33821 z m 75.98045,-173.41812 c 5.27536,-2.47835 8.45224,-8.28773 7.49719,-13.70966 -0.88098,-5.00138 -4.31515,-8.99288 -8.97573,-10.43239 -7.44851,-2.30061 -15.22041,2.44679 -16.59468,10.13673 -1.11768,6.25416 2.49944,12.34273 8.61697,14.50462 1.36714,0.48314 2.24627,0.58107 4.58985,0.51133 2.55329,-0.0759 3.13333,-0.19644 4.8664,-1.01063 z"
         id="path2997"
         inkscape:connector-curvature="0" />
      <path
         style="fill:#ffffff;stroke-width:1.06666672"
         d="m 454.36064,827.89603 c -8.15346,-1.4825 -16.18278,-6.42417 -21.85664,-13.45173 -10.74701,-13.31108 -16.17228,-35.50291 -15.49121,-63.36608 0.42443,-17.36325 3.02022,-30.25248 8.30085,-41.21726 6.80669,-14.13349 16.97682,-22.51509 30.70615,-25.30613 3.00723,-0.61134 3.15797,-0.61293 56.12315,-0.59178 29.20932,0.0116 53.32208,-0.061 53.58393,-0.16149 0.41553,-0.15946 0.4761,-0.80556 0.4761,-5.07966 0,-2.69332 -0.0326,-4.92829 -0.0724,-4.96658 -0.0399,-0.0383 -16.24782,-0.13614 -36.01771,-0.21742 l -35.94524,-0.14778 -0.0747,-18.68189 c -0.0817,-20.46158 -0.0981,-20.22432 1.65369,-23.98211 6.07288,-13.02703 23.96225,-20.94192 52.62867,-23.28477 2.07264,-0.16938 7.68184,-0.38468 12.46487,-0.47842 31.73703,-0.62198 55.0178,5.18135 67.25523,16.76509 1.35569,1.28328 3.12244,3.19874 3.92612,4.25659 1.82745,2.40537 4.10218,6.99769 4.97318,10.04003 l 0.66392,2.31905 v 38.55417 c 0,35.98802 -0.0349,38.73746 -0.52435,41.30803 -0.63159,3.31709 -2.14867,7.97777 -3.41305,10.48543 -4.3775,8.68192 -12.443,14.93669 -23.13471,17.94087 -6.94252,1.95072 -3.78937,1.82256 -49.74634,2.02196 -45.63918,0.19802 -42.88154,0.0917 -49.27975,1.89996 -12.42747,3.51225 -21.55717,13.1917 -25.26606,26.7875 -1.66731,6.1119 -1.63031,5.54089 -1.81289,27.9735 l -0.16987,20.87144 -13.91428,0.0477 c -10.50388,0.036 -14.43449,-0.0468 -16.03667,-0.33821 z m 75.98045,-173.41812 c 5.27536,-2.47835 8.45224,-8.28773 7.49719,-13.70966 -0.88098,-5.00138 -4.31515,-8.99288 -8.97573,-10.43239 -7.44851,-2.30061 -15.22041,2.44679 -16.59468,10.13673 -1.11768,6.25416 2.49944,12.34273 8.61697,14.50462 1.36714,0.48314 2.24627,0.58107 4.58985,0.51133 2.55329,-0.0759 3.13333,-0.19644 4.8664,-1.01063 z"
         id="path2995"
         inkscape:connector-curvature="0" />
    </g>
  </g>
</svg>
