<svg fill="#231F20" xmlns="http://www.w3.org/2000/svg" width="103.539px" height="38.045px" viewBox="76.5 72.205 103.539 38.045">
	<path d="M104.37,101.5V86.903h-2.38v-2.345h2.38v-0.806c0-2.38,0.525-4.55,1.961-5.915 c1.154-1.12,2.695-1.575,4.13-1.575c1.085,0,2.03,0.245,2.626,0.489l-0.421,2.381c-0.455-0.21-1.085-0.385-1.96-0.385 c-2.625,0-3.291,2.31-3.291,4.9v0.91h4.096v2.345h-4.096V101.5H104.37z"/>
	<path d="M114.274,89.844c0-1.995-0.034-3.71-0.14-5.285h2.695l0.104,3.325h0.141c0.77-2.275,2.625-3.711,4.69-3.711 c0.351,0,0.595,0.035,0.875,0.105v2.905c-0.315-0.07-0.63-0.105-1.05-0.105c-2.17,0-3.711,1.646-4.131,3.956 c-0.07,0.42-0.14,0.91-0.14,1.435v9.031h-3.046V89.844z"/>
	<path d="M129.29,79.798c0.035,1.05-0.734,1.89-1.96,1.89c-1.085,0-1.854-0.84-1.854-1.89 c0-1.085,0.805-1.926,1.924-1.926C128.556,77.872,129.29,78.713,129.29,79.798z M125.86,101.5V84.559h3.08V101.5H125.86z"/>
	<path d="M133.63,98.35c0.91,0.595,2.52,1.226,4.061,1.226c2.24,0,3.289-1.12,3.289-2.521 c0-1.471-0.875-2.275-3.15-3.115c-3.045-1.085-4.48-2.766-4.48-4.796c0-2.73,2.206-4.971,5.846-4.971 c1.716,0,3.221,0.49,4.166,1.051l-0.77,2.24c-0.666-0.42-1.891-0.98-3.466-0.98c-1.82,0-2.835,1.05-2.835,2.311 c0,1.399,1.015,2.03,3.22,2.87c2.94,1.12,4.446,2.59,4.446,5.11c0,2.976-2.311,5.075-6.336,5.075c-1.855,0-3.57-0.455-4.761-1.154 L133.63,98.35z"/>
	<path d="M159.985,100.87c-0.805,0.42-2.59,0.979-4.865,0.979c-5.111,0-8.436-3.465-8.436-8.646 c0-5.216,3.57-8.996,9.101-8.996c1.82,0,3.431,0.455,4.271,0.875l-0.7,2.381c-0.735-0.42-1.89-0.806-3.57-0.806 c-3.886,0-5.985,2.87-5.985,6.406c0,3.92,2.52,6.335,5.881,6.335c1.75,0,2.904-0.455,3.779-0.84L159.985,100.87z"/>
	<path d="M178.711,92.889c0,6.266-4.341,8.996-8.436,8.996c-4.585,0-8.121-3.36-8.121-8.716 c0-5.671,3.71-8.996,8.401-8.996C175.421,84.173,178.711,87.709,178.711,92.889z M165.27,93.064c0,3.71,2.136,6.511,5.146,6.511 c2.94,0,5.146-2.766,5.146-6.581c0-2.87-1.435-6.511-5.075-6.511S165.27,89.844,165.27,93.064z"/>
	<path d="M80.5,96.834h2v-12h-2V96.834z M84.5,100.834h2v-20h-2V100.834z M76.5,92.834h2v-4h-2V92.834z M88.5,96.834 h2v-12h-2V96.834z M92.5,88.834v4h2v-4H92.5z"/>
</svg>
